<?xml version="1.0" encoding="UTF-8"?>
<svg width="32" height="32" viewBox="0 0 32 32" fill="none" xmlns="http://www.w3.org/2000/svg">
  <!-- Base circle -->
  <circle cx="16" cy="16" r="14" stroke="#1B2845" stroke-width="2"/>
  
  <!-- Main yarn wraps -->
  <path d="M3 16C8 14 16 12 16 16C16 20 24 18 29 16" 
        stroke="#1B2845" stroke-width="2" stroke-linecap="round"/>
  <path d="M3 12C8 10 16 8 16 12C16 16 24 14 29 12" 
        stroke="#1B2845" stroke-width="2" stroke-linecap="round"/>
  <path d="M3 20C8 18 16 16 16 20C16 24 24 22 29 20" 
        stroke="#1B2845" stroke-width="2" stroke-linecap="round"/>
        
  <!-- Vertical yarn wraps -->
  <path d="M16 2C19 2 22 8 22 16C22 24 19 30 16 30" 
        stroke="#1B2845" stroke-width="2" stroke-linecap="round"/>
  <path d="M16 2C13 2 10 8 10 16C10 24 13 30 16 30" 
        stroke="#1B2845" stroke-width="2" stroke-linecap="round"/>
  
  <!-- Additional yarn texture -->
  <path d="M6 8C10 6 16 4 16 8C16 12 22 10 26 8" 
        stroke="#1B2845" stroke-width="1.5" stroke-linecap="round"/>
  <path d="M6 24C10 22 16 20 16 24C16 28 22 26 26 24" 
        stroke="#1B2845" stroke-width="1.5" stroke-linecap="round"/>
</svg> 