<?xml version="1.0" encoding="UTF-8" standalone="no"?>
<svg
   xmlns:dc="http://purl.org/dc/elements/1.1/"
   xmlns:cc="http://creativecommons.org/ns#"
   xmlns:rdf="http://www.w3.org/1999/02/22-rdf-syntax-ns#"
   xmlns:svg="http://www.w3.org/2000/svg"
   xmlns="http://www.w3.org/2000/svg"
   id="svg8"
   version="1.1"
   viewBox="0 0 75.424599 58.523014"
   height="58.523014mm"
   width="75.424599mm">
  <defs
     id="defs2" />
  <metadata
     id="metadata5">
    <rdf:RDF>
      <cc:Work
         rdf:about="">
        <dc:format>image/svg+xml</dc:format>
        <dc:type
           rdf:resource="http://purl.org/dc/dcmitype/StillImage" />
        <dc:title></dc:title>
      </cc:Work>
    </rdf:RDF>
  </metadata>
  <g
     transform="translate(-14.044068,-121.15544)"
     id="layer1">
    <g
       transform="matrix(0.03527778,0,0,-0.03527778,14.044068,179.67845)"
       id="g843">
      <path
         id="path845"
         style="fill:#100f0d;fill-opacity:1;fill-rule:nonzero;stroke:none"
         d="m 26.4063,849.332 c -6.5977,0 -12.6485,2.211 -18.14458,6.598 C 2.75391,860.32 0,869.125 0,882.324 c 0,10.258 2.75391,17.434 8.26172,21.457 5.49608,4.028 11.71488,7.692 18.69138,10.989 6.961,3.3 13.1953,7.871 18.7032,13.773 5.496,5.84 8.25,15.375 8.25,28.602 v 564.545 c 0,9.53 -0.5469,16.86 -1.6485,22 -1.1055,5.12 -3.3008,8.96 -6.6015,11.56 -3.2969,2.55 -7.5352,4.39 -12.6485,5.48 -5.1484,1.12 -11.7461,2.4 -19.7969,3.88 -5.88668,1.45 -9.54684,4.2 -10.99996,8.23 C 0.726563,1576.86 0,1584.01 0,1594.3 c 0,10.26 0.726563,17.22 2.21094,20.88 1.45312,3.66 5.11328,5.87 10.99996,6.6 l 260.6911,32.75 V 957.145 c 0,-13.227 2.754,-22.762 8.25,-28.602 5.508,-5.902 11.727,-10.473 18.703,-13.773 6.961,-3.297 13.2,-6.961 18.708,-10.989 5.492,-4.023 8.246,-11.199 8.246,-21.457 0,-13.199 -2.938,-22.004 -8.809,-26.394 -5.871,-4.387 -12.09,-6.598 -18.687,-6.598 H 26.4063" />
      <path
         id="path847"
         style="fill:#100f0d;fill-opacity:1;fill-rule:nonzero;stroke:none"
         d="m 754.207,1542.33 c 0,14.65 -5.328,27.3 -15.953,37.96 -10.637,10.62 -23.274,15.95 -37.938,15.95 v 62.68 h 21.989 c 5.129,0 15.574,-1.27 31.355,-3.85 15.754,-2.57 33.719,-8.26 53.906,-17.03 20.161,-8.81 41.239,-22.01 63.243,-39.63 22.004,-17.58 42.164,-41.43 60.504,-71.48 18.312,-30.09 33.355,-67.65 45.101,-112.75 11.711,-45.1 17.598,-99.19 17.598,-162.26 0,-63.08 -5.887,-117.14 -17.598,-162.24 -11.746,-45.09 -26.789,-82.69 -45.101,-112.742 -18.34,-30.086 -38.5,-53.907 -60.504,-71.52 -22.004,-17.586 -43.082,-30.781 -63.243,-39.59 -20.187,-8.808 -38.152,-14.5 -53.906,-17.039 -15.781,-2.574 -26.226,-3.844 -31.355,-3.844 h -21.989 v 62.68 c 14.664,0 27.301,5.328 37.938,15.953 10.625,10.625 15.953,23.274 15.953,37.953 z M 585.906,923.031 c 5.871,-4.386 12.653,-7.687 20.356,-9.894 7.703,-2.211 15.57,-3.696 23.652,-4.391 8.066,-0.758 13.922,-1.121 17.602,-1.121 v -62.68 c -3.68,0 -11.926,0.18 -24.762,0.543 -12.832,0.364 -27.68,1.848 -44.535,4.391 -16.891,2.57 -34.492,6.961 -52.801,13.195 -18.344,6.235 -35.203,15.406 -50.609,27.512 -15.391,12.109 -28.239,27.301 -38.5,45.644 -10.278,18.309 -15.391,41.434 -15.391,69.31 0,40.32 10.441,69.1 31.344,86.35 20.898,17.23 45.277,25.85 73.156,25.85 9.516,0 19.961,-1.48 31.34,-4.42 11.367,-2.93 21.82,-7.5 31.355,-13.74 9.52,-6.23 17.407,-14.68 23.657,-25.3 6.218,-10.62 9.335,-23.64 9.335,-39.05 0,-13.95 -2.375,-25.48 -7.14,-34.65 -4.785,-9.174 -9.899,-17.045 -15.406,-23.642 -5.496,-6.598 -10.446,-12.653 -14.848,-18.161 -4.402,-5.507 -6.598,-11.199 -6.598,-17.039 0,-8.082 2.918,-14.316 8.793,-18.707 z M 398.914,1519.24 c 19.797,32.99 43.449,59.74 70.945,80.3 27.5,20.52 55.723,35.56 84.704,45.09 28.964,9.51 52.605,14.29 70.949,14.29 h 22.004 v -62.68 c -14.68,0 -27.332,-5.33 -37.957,-15.95 -10.637,-10.66 -15.95,-23.31 -15.95,-37.96 v -243.11 c 0,-8.08 3.118,-15.22 9.352,-21.45 6.219,-6.24 13.379,-9.33 21.445,-9.33 10.274,0 20.172,2.36 29.707,7.15 9.52,4.75 18.325,9.35 26.391,13.74 v -65.99 c -8.066,-6.63 -21.277,-14.31 -39.586,-23.12 -18.344,-8.78 -43.285,-13.2 -74.809,-13.2 -27.875,0 -53.89,4.42 -78.101,13.2 -24.199,8.81 -45.102,22.01 -62.699,39.62 -17.602,17.59 -31.344,39.77 -41.243,66.53 -9.894,26.78 -14.859,57.75 -14.859,92.95 0,46.94 9.91,86.89 29.707,119.92" />
      <path
         id="path849"
         style="fill:#100f0d;fill-opacity:1;fill-rule:nonzero;stroke:none"
         d="m 1544.03,957.145 c 0,-13.227 2.74,-22.762 8.25,-28.602 5.49,-5.902 11.71,-10.473 18.7,-13.773 6.95,-3.297 13.2,-6.961 18.69,-10.989 5.51,-4.023 8.25,-11.199 8.25,-21.457 0,-13.199 -2.74,-22.004 -8.25,-26.394 -5.49,-4.387 -11.92,-6.598 -19.25,-6.598 h -272.8 c -6.59,0 -12.83,2.211 -18.69,6.598 -5.88,4.39 -8.8,13.195 -8.8,26.394 0,10.258 2.75,17.434 8.24,21.457 5.51,4.028 11.73,7.692 18.71,10.989 6.96,3.3 13.2,7.871 18.69,13.773 5.51,5.84 8.26,15.375 8.26,28.602 v 547.775 l 111.1,149.61 h 108.9 v -543.39 h 92.39 c 8.81,0 13.21,-10.65 13.21,-31.9 0,-21.28 -4.4,-31.9 -13.21,-31.9 h -92.39 z m -273.9,153.995 v -63.8 h -209 c -11,0 -20.54,4.03 -28.6,12.08 -8.08,8.08 -12.11,17.61 -12.11,28.6 0,10.26 4.4,20.91 13.21,31.9 l 236.5,314.6 v -99 l -148.5,-197.98 c -5.14,-8.08 -7.7,-13.95 -7.7,-17.62 0,-5.87 2.92,-8.78 8.79,-8.78 h 147.41" />
      <path
         id="path851"
         style="fill:#100f0d;fill-opacity:1;fill-rule:nonzero;stroke:none"
         d="m 2039.58,1382.82 c -8.45,-17.58 -17.6,-38.5 -27.5,-62.68 -9.9,-24.21 -19.08,-51 -27.5,-80.3 -8.44,-29.36 -12.65,-59.78 -12.65,-91.32 0,-20.52 1.27,-36.68 3.85,-48.39 2.55,-11.75 5.31,-22.37 8.24,-31.9 2.92,-9.54 5.68,-19.62 8.25,-30.24 2.57,-10.65 3.86,-24.76 3.86,-42.345 0,-46.946 -11.38,-84.172 -34.1,-111.657 -22.74,-27.511 -52.8,-41.254 -90.21,-41.254 -41.8,0 -74.08,14.106 -96.79,42.344 -22.73,28.238 -34.1,67.285 -34.1,117.162 0,24.91 5.68,51.85 17.04,80.85 11.37,28.96 25.67,57.93 42.91,86.89 17.22,28.97 36.11,56.82 56.64,83.6 20.52,26.76 39.97,50.76 58.31,72.04 18.31,21.27 34.46,38.86 48.4,52.81 13.92,13.93 22.71,22.01 26.39,24.19 22.73,2.93 43.27,9.17 61.61,18.7 0,-8.08 -4.24,-20.88 -12.65,-38.5 z m -330.55,271.71 -11,-78.09 c 7.32,7.29 15.4,15.74 24.2,25.27 8.8,9.54 18.7,18.53 29.7,26.97 11.01,8.42 23.64,15.56 37.94,21.46 14.31,5.84 30.62,8.78 48.96,8.78 19.05,0 37.02,-2.76 53.89,-8.23 16.88,-5.51 33.37,-11.38 49.5,-17.62 16.14,-6.23 32.07,-12.11 47.86,-17.58 15.77,-5.51 32.44,-8.27 50.04,-8.27 11.01,0 19.81,1.46 26.41,4.42 6.6,2.91 11.91,6.75 15.95,11.54 4.01,4.75 7.31,9.89 9.9,15.4 2.56,5.51 5.31,10.81 8.25,15.95 h 37.39 v -18.71 c 0,-15.4 -3.11,-34.28 -9.35,-56.66 -6.23,-22.36 -16.13,-43.61 -29.69,-63.77 -13.58,-20.19 -31.54,-37.59 -53.91,-52.27 -22.37,-14.68 -49.68,-22 -81.95,-22 -19.79,0 -41.07,2.02 -63.78,6.05 -22.75,4.03 -45.12,8.44 -67.11,13.2 -22,4.78 -42.17,9.17 -60.5,13.22 -18.34,4 -32.64,6.03 -42.9,6.03 -16.88,0 -28.99,-3.67 -36.3,-10.99 -7.33,-7.36 -11.74,-15.41 -13.21,-24.22 l -5.49,-39.58 h -50.61 l 35.2,249.7 h 50.61" />
      <path
         id="path853"
         style="fill:#100f0d;fill-opacity:1;fill-rule:nonzero;stroke:none"
         d="M 383.746,422.5 1038.14,56.0313 1692.55,422.5 1038.14,788.953 Z M 1038.14,0 283.715,422.5 1038.14,844.98 1050.07,838.273 1792.58,422.5 1038.14,0" />
      <path
         id="path855"
         style="fill:#100f0d;fill-opacity:1;fill-rule:nonzero;stroke:none"
         d="m 668.754,422.488 c 0,-14.976 -12.141,-27.117 -27.117,-27.117 -14.981,0 -27.121,12.141 -27.121,27.117 0,14.981 12.14,27.121 27.121,27.121 14.976,0 27.117,-12.14 27.117,-27.121" />
      <path
         id="path857"
         style="fill:#100f0d;fill-opacity:1;fill-rule:nonzero;stroke:none"
         d="m 1497.95,422.488 c 0,-14.976 -12.15,-27.117 -27.12,-27.117 -14.98,0 -27.12,12.141 -27.12,27.117 0,14.981 12.14,27.121 27.12,27.121 14.97,0 27.12,-12.14 27.12,-27.121" />
      <path
         id="path859"
         style="fill:#100f0d;fill-opacity:1;fill-rule:nonzero;stroke:none"
         d="m 776.445,311.578 v 228.313 h 43.539 V 351.172 h 96.2 V 311.578 H 776.445" />
      <path
         id="path861"
         style="fill:#100f0d;fill-opacity:1;fill-rule:nonzero;stroke:none"
         d="m 978.305,311.578 v 228.313 h 43.535 V 351.172 h 96.19 V 311.578 H 978.305" />
      <path
         id="path863"
         style="fill:#100f0d;fill-opacity:1;fill-rule:nonzero;stroke:none"
         d="m 1259,307.93 c -66.47,0 -116.59,51.172 -116.59,119.031 0,66.469 49.86,116.59 115.99,116.59 54.03,0 81.96,-29.192 83.13,-30.43 l 3.62,-3.871 -22.22,-33.531 -5.79,5.39 c -0.24,0.219 -23.64,21.629 -57.52,21.629 -42.15,0 -72.75,-31.75 -72.75,-75.476 0,-44.59 31.4,-78.223 73.05,-78.223 37.12,0 61.2,25.602 61.45,25.852 l 5.47,5.929 24.18,-32.41 -3.53,-4.07 c -1.29,-1.488 -32.18,-36.41 -88.49,-36.41" />
    </g>
  </g>
</svg>
